<svg width="512" height="512" viewBox="0 0 512 512" fill="none" xmlns="http://www.w3.org/2000/svg">
<rect width="512" height="512" fill="#E5E5E5"/>
<path d="M506.617 3.48939C503.206 0.639393 498.708 -0.551608 494.332 0.239392L162.332 60.2394C155.193 61.5304 150 67.7454 150 75.0004V354.98C134.065 340.7 113.031 332 90 332C40.374 332 0 372.374 0 422C0 471.626 40.374 512 90 512C139.626 512 180 471.626 180 422V197.532L482 142.954V309.981C466.065 295.7 445.031 287 422 287C372.374 287 332 327.374 332 377C332 426.626 372.374 467 422 467C471.626 467 512 426.626 512 377V15.0004C512 10.5554 510.029 6.33939 506.617 3.48939V3.48939ZM90 482C56.916 482 30 455.084 30 422C30 388.916 56.916 362 90 362C123.084 362 150 388.916 150 422C150 455.084 123.084 482 90 482ZM180 167.047V87.5334L482 32.9544V112.468L180 167.047ZM422 437C388.916 437 362 410.084 362 377C362 343.916 388.916 317 422 317C455.084 317 482 343.916 482 377C482 410.084 455.084 437 422 437Z" fill="white"/>
</svg>
